
<svg version="1.1"
	 xmlns="http://www.w3.org/2000/svg" xmlns:xlink="http://www.w3.org/1999/xlink" xmlns:a="http://ns.adobe.com/AdobeSVGViewerExtensions/3.0/"
	 x="0px" y="0px" width="490px" height="473.5px" viewBox="0 0 490 473.5" style="enable-background:new 0 0 490 473.5;"
	 xml:space="preserve">

<defs>
</defs>
<g>
	<path class="st0" d="M368,94.6c-67.3,0-122,54.7-122,122c0,62,99.6,231.5,110.9,250.6c2.3,3.9,6.5,6.3,11.1,6.3
		c4.5,0,8.8-2.4,11.1-6.3C390.4,448.1,490,278.7,490,216.7C490,149.4,435.3,94.6,368,94.6z M368,435.1
		c-34.5-60.3-96.2-176.9-96.2-218.4c0-53.1,43.2-96.2,96.2-96.2c53.1,0,96.2,43.2,96.2,96.2C464.2,258.2,402.5,374.8,368,435.1z"/>
	<path class="st0" d="M368,157.2c-32.8,0-59.5,26.7-59.5,59.5c0,32.8,26.7,59.5,59.5,59.5c32.8,0,59.5-26.7,59.5-59.5
		C427.5,183.9,400.8,157.2,368,157.2z M368,250.4c-18.6,0-33.7-15.1-33.7-33.7c0-18.6,15.1-33.7,33.7-33.7
		c18.6,0,33.7,15.1,33.7,33.7C401.7,235.3,386.6,250.4,368,250.4z"/>
	<path class="st0" d="M318.6,446.6H85.9c-33.2,0-60.1-27-60.1-60.1v-7.1c0-33.2,27-60.1,60.1-60.1l64.8,0.2
		c30.1,0,54.6-24.9,54.6-55v-14.4c0-30.1-24.5-54.6-54.6-54.6h-26c-4.3,7.6-9.5,16.7-15.3,25.8h41.3c15.9,0,28.9,12.9,28.9,28.8
		v14.4c0,15.9-12.9,29.3-28.9,29.3l-64.8-0.2C38.5,293.4,0,331.9,0,379.3v7.1c0,47.4,38.5,85.9,85.9,85.9h247c0.4,0,0.7-0.1,1.1-0.1
		C330.3,466.1,326.1,459.2,318.6,446.6z"/>
	<path class="st0" d="M77.3,221c4.5,0,8.8-2.4,11.1-6.3C94.7,204,150.5,109,150.5,73.2C150.5,32.8,117.7,0,77.3,0
		C36.9,0,4.1,32.8,4.1,73.2C4.1,109,59.9,204,66.2,214.7C68.5,218.6,72.8,221,77.3,221z M77.3,25.8c26.2,0,47.4,21.3,47.4,47.4
		c0,18.4-25.8,70.4-47.4,109.1C55.7,143.6,29.9,91.6,29.9,73.2C29.9,47,51.1,25.8,77.3,25.8z"/>
	<path class="st0" d="M95.5,62.9c-3.5-10-14.5-15.3-24.6-11.8c-10,3.5-15.3,14.5-11.8,24.6c3.5,10,14.5,15.3,24.6,11.8
		C93.7,83.9,99,72.9,95.5,62.9z"/>
</g>
</svg>
