
<svg 
	 x="0px" y="0px" width="65.5px" height="65.5px" viewBox="0 0 65.5 65.5" style="enable-background:new 0 0 65.5 65.5;"
	 xml:space="preserve">

<g>
	<g>
		<g>
			<path class="st0" d="M43.7,4.8c0-2.2-4.9-4-11-4s-11,1.8-11,4h-9v13h40v-13H43.7z"/>
		</g>
		<g>
			<path class="st1" d="M43.7,4.8c0-2.2-4.9-4-11-4s-11,1.8-11,4h-9v6h35c0.6,0,1-0.4,1-1v-5H43.7z"/>
		</g>
		<g>
			<path class="st2" d="M52.8,18.5h-40c-0.4,0-0.8-0.3-0.8-0.8v-13C12,4.3,12.3,4,12.8,4h8.4c0.9-2.6,6.4-4,11.6-4s10.7,1.4,11.6,4
				h8.4c0.4,0,0.8,0.3,0.8,0.8v13C53.5,18.2,53.2,18.5,52.8,18.5z M13.5,17H52V5.5h-8.3c-0.4,0-0.8-0.3-0.8-0.8
				c0-1.4-3.9-3.2-10.2-3.2S22.5,3.4,22.5,4.8c0,0.4-0.3,0.8-0.8,0.8h-8.2V17z M44.5,4.8L44.5,4.8L44.5,4.8z"/>
		</g>
		<g>
			<path class="st2" d="M12.8,18.5c-0.4,0-0.8-0.3-0.8-0.8v-15C12,2.3,12.3,2,12.8,2c0.4,0,0.8,0.3,0.8,0.8v15
				C13.5,18.2,13.2,18.5,12.8,18.5z"/>
		</g>
		<g>
			<path class="st2" d="M52.8,18.5c-0.4,0-0.8-0.3-0.8-0.8v-15C52,2.3,52.3,2,52.8,2c0.4,0,0.8,0.3,0.8,0.8v15
				C53.5,18.2,53.2,18.5,52.8,18.5z"/>
		</g>
		<g>
			<polygon class="st0" points="52.8,17.7 12.8,17.7 9.4,26.7 56.1,26.7 			"/>
		</g>
		<g>
			<path class="st1" d="M49.5,17.7H12.8l-2.6,7h40.6c0.7,0,1.2-0.7,0.9-1.4L49.5,17.7z"/>
		</g>
		<g>
			<path class="st2" d="M56.1,27.5H9.4c-0.2,0-0.5-0.1-0.6-0.3c-0.1-0.2-0.2-0.5-0.1-0.7l3.4-9c0.1-0.3,0.4-0.5,0.7-0.5h40
				c0.3,0,0.6,0.2,0.7,0.5l3.4,9c0.1,0.2,0.1,0.5-0.1,0.7C56.6,27.4,56.4,27.5,56.1,27.5z M10.5,26H55l-2.8-7.5h-39L10.5,26z"/>
		</g>
		<g>
			<polygon class="st0" points="9.4,26.7 3.8,41.7 61.7,41.7 56.1,26.7 			"/>
		</g>
		<g>
			<path class="st1" d="M9.4,26.7l-4.1,11h49.1c0.7,0,1.2-0.7,0.9-1.4l-3.6-9.7H9.4z"/>
		</g>
		<g>
			<path class="st2" d="M61.7,42.5h-58c-0.2,0-0.5-0.1-0.6-0.3C3,42,3,41.7,3,41.5l5.6-15C8.8,26.2,9.1,26,9.4,26h46.7
				c0.3,0,0.6,0.2,0.7,0.5l5.6,15c0.1,0.2,0.1,0.5-0.1,0.7C62.2,42.4,62,42.5,61.7,42.5z M4.8,41h55.8l-5.1-13.5H9.9L4.8,41z"/>
		</g>
		<g>
			<path class="st1" d="M30.7,21.8h-12c-1.1,0-2-0.9-2-2l0,0c0-3.3,2.7-6,6-6h4c3.3,0,6,2.7,6,6l0,0C32.7,20.9,31.9,21.8,30.7,21.8z
				"/>
		</g>
		<g>
			<path class="st0" d="M26.7,13.8h-4l0,0c3.3,0,6,2.7,6,6c0,1.1-0.9,2-2,2h4c1.1,0,2-0.9,2-2C32.7,16.4,30.1,13.8,26.7,13.8z"/>
		</g>
		<g>
			<path class="st2" d="M30.7,22.5h-12c-1.5,0-2.8-1.2-2.8-2.8c0-3.7,3-6.8,6.8-6.8h4c3.7,0,6.8,3,6.8,6.8
				C33.5,21.3,32.3,22.5,30.7,22.5z M22.7,14.5c-2.9,0-5.2,2.4-5.2,5.2c0,0.7,0.6,1.2,1.2,1.2h12c0.7,0,1.2-0.6,1.2-1.2
				c0-2.9-2.4-5.2-5.2-5.2H22.7z"/>
		</g>
		<g>
			<path class="st1" d="M46.8,21.8h-12c-1.1,0-2-0.9-2-2l0,0c0-3.3,2.7-6,6-6h4c3.3,0,6,2.7,6,6l0,0C48.8,20.9,47.9,21.8,46.8,21.8z
				"/>
		</g>
		<g>
			<path class="st0" d="M42.8,13.8h-4l0,0c3.3,0,6,2.7,6,6c0,1.1-0.9,2-2,2h4c1.1,0,2-0.9,2-2C48.8,16.4,46.1,13.8,42.8,13.8z"/>
		</g>
		<g>
			<path class="st2" d="M46.8,22.5h-12c-1.5,0-2.8-1.2-2.8-2.8c0-3.7,3-6.8,6.8-6.8h4c3.7,0,6.8,3,6.8,6.8
				C49.5,21.3,48.3,22.5,46.8,22.5z M38.8,14.5c-2.9,0-5.2,2.4-5.2,5.2c0,0.7,0.6,1.2,1.2,1.2h12c0.7,0,1.2-0.6,1.2-1.2
				c0-2.9-2.4-5.2-5.2-5.2H38.8z"/>
		</g>
		<g>
			<path class="st2" d="M0.8,65.5c-0.4,0-0.8-0.3-0.8-0.8v-27C0,37.3,0.3,37,0.8,37c0.4,0,0.8,0.3,0.8,0.8v27
				C1.5,65.2,1.2,65.5,0.8,65.5z"/>
		</g>
		<g>
			<path class="st2" d="M64.8,65.5c-0.4,0-0.8-0.3-0.8-0.8v-27c0-0.4,0.3-0.8,0.8-0.8c0.4,0,0.8,0.3,0.8,0.8v27
				C65.5,65.2,65.2,65.5,64.8,65.5z"/>
		</g>
		<g>
			<path class="st0" d="M51.7,41.7c0-3.3-8.5-6-19-6s-19,2.7-19,6h-13v17h64v-17H51.7z"/>
		</g>
		<g>
			<path class="st1" d="M51.7,41.7c0-3.3-8.5-6-19-6s-19,2.7-19,6h-13v12h57c1.1,0,2-0.9,2-2v-10H51.7z"/>
		</g>
		<g>
			<path class="st2" d="M64.8,59.5h-64c-0.4,0-0.8-0.3-0.8-0.8v-17C0,41.3,0.3,41,0.8,41h12.4c1.1-3.9,10.6-6,19.6-6
				s18.6,2.1,19.6,6h12.4c0.4,0,0.8,0.3,0.8,0.8v17C65.5,59.2,65.2,59.5,64.8,59.5z M1.5,58H64V42.5H51.7c-0.4,0-0.8-0.3-0.8-0.8
				c0-2.5-7.5-5.2-18.2-5.2s-18.2,2.8-18.2,5.2c0,0.4-0.3,0.8-0.8,0.8H1.5V58z"/>
		</g>
		<g>
			<path class="st2" d="M34.7,51.5H15c-0.4,0-0.8-0.3-0.8-0.8S14.6,50,15,50h19.7c0.4,0,0.8,0.3,0.8,0.8S35.2,51.5,34.7,51.5z"/>
		</g>
		<g>
			<path class="st2" d="M11,51.5H8.7c-0.4,0-0.7-0.3-0.7-0.8S8.3,50,8.7,50H11c0.4,0,0.8,0.3,0.8,0.8S11.5,51.5,11,51.5z"/>
		</g>
	</g>
</g>
</svg>
