<!-- Generator: Adobe Illustrator 22.0.0, SVG Export Plug-In  -->
<svg 
	 x="0px" y="0px" width="65.5px" height="65.5px" viewBox="0 0 65.5 65.5" style="enable-background:new 0 0 65.5 65.5;"
	 xml:space="preserve">

<g>
	<g>
		<g>
			<path class="st2" d="M46.8,65.5h-28C8.4,65.5,0,57.1,0,46.8v-28C0,8.4,8.4,0,18.8,0h28c10.3,0,18.8,8.4,18.8,18.8v28
				C65.5,57.1,57.1,65.5,46.8,65.5z M18.8,1.5C9.2,1.5,1.5,9.2,1.5,18.8v28C1.5,56.3,9.2,64,18.8,64h28C56.3,64,64,56.3,64,46.8v-28
				c0-9.5-7.7-17.2-17.2-17.2H18.8z"/>
		</g>
		<path class="st0" d="M41.2,35.6l-2.8,2.8c-0.4,0.4-1,0.4-1.4,0L24.3,25.7l3.5-3.5l-5.7,5.7l15.6,15.6l5.7-5.7L41.2,35.6z"/>
		<g>
			<path class="st2" d="M37.7,44.1c-0.2,0-0.4-0.1-0.5-0.2L21.6,28.3c-0.3-0.3-0.3-0.8,0-1.1l5.7-5.7c0.3-0.3,0.8-0.3,1.1,0
				l15.6,15.6c0.3,0.3,0.3,0.8,0,1.1l-5.7,5.7C38.1,44,37.9,44.1,37.7,44.1z M23.2,27.8l14.5,14.5l4.6-4.6L27.8,23.2L23.2,27.8z"/>
		</g>
		<path class="st0" d="M27.1,11.5L23.6,8l2.1,2.1l-12,12c-0.4,0.4-1,0.4-1.4,0L10.1,20l12-12L8,22.1c-0.4,0.4-0.4,1,0,1.4l3.5,3.5
			c0.4,0.4,1,0.4,1.4,0l14.1-14.1C27.5,12.6,27.5,11.9,27.1,11.5z"/>
		<g>
			<path class="st2" d="M12.2,28.1c-0.5,0-0.9-0.2-1.2-0.5l-3.5-3.5c-0.7-0.7-0.7-1.8,0-2.5L21.6,7.5c0.7-0.7,1.8-0.7,2.5,0l3.5,3.5
				c0.3,0.3,0.5,0.8,0.5,1.2c0,0.5-0.2,0.9-0.5,1.2L13.5,27.6C13.1,28,12.7,28.1,12.2,28.1z M22.8,8.5c-0.1,0-0.1,0-0.2,0.1
				L8.5,22.7c-0.1,0.1-0.1,0.3,0,0.4l3.5,3.5c0.1,0.1,0.3,0.1,0.4,0l14.1-14.1c0.1-0.1,0.1-0.1,0.1-0.2c0,0,0-0.1-0.1-0.2L23,8.5
				C23,8.5,22.9,8.5,22.8,8.5z"/>
		</g>
		<path class="st0" d="M34.9,13.7l-1.4-1.4L15.1,30.6c-0.4,0.4-1,0.4-1.4,0l-2.1-2.1l-1.4,1.4c-0.4,0.4-0.4,1,0,1.4l3.5,3.5
			c0.4,0.4,1,0.4,1.4,0l19.8-19.8C35.3,14.7,35.3,14,34.9,13.7z"/>
		<g>
			<path class="st2" d="M14.4,35.9c-0.4,0-0.9-0.2-1.2-0.5l-3.5-3.5c-0.7-0.7-0.7-1.8,0-2.5L29.4,9.6c0.7-0.7,1.8-0.7,2.5,0l3.5,3.5
				c0.7,0.7,0.7,1.8,0,2.5L15.6,35.4C15.3,35.7,14.8,35.9,14.4,35.9z M30.6,10.6c-0.1,0-0.1,0-0.2,0.1L10.7,30.5
				c-0.1,0.1-0.1,0.3,0,0.4l3.5,3.5c0.1,0.1,0.3,0.1,0.4,0l19.8-19.8c0.1-0.1,0.1-0.3,0-0.4l-3.5-3.5C30.8,10.6,30.7,10.6,30.6,10.6
				z"/>
		</g>
		<g>
			<path class="st0" d="M50.4,30.6c0.2-0.2,0.5-0.3,0.7-0.3C50.9,30.3,50.6,30.4,50.4,30.6z"/>
			<path class="st0" d="M55.4,34.2L54,32.7L35.6,51.1c-0.4,0.4-1,0.4-1.4,0L32,49l18.4-18.4L30.6,50.4c-0.4,0.4-0.4,1,0,1.4l3.5,3.5
				c0.4,0.4,1,0.4,1.4,0l19.8-19.8C55.8,35.2,55.8,34.6,55.4,34.2z"/>
		</g>
		<g>
			<path class="st2" d="M34.9,56.4c-0.4,0-0.9-0.2-1.2-0.5l-3.5-3.5c-0.7-0.7-0.7-1.8,0-2.5l19.8-19.8c0.7-0.7,1.8-0.7,2.5,0
				l3.5,3.5c0.7,0.7,0.7,1.8,0,2.5L36.1,55.9C35.8,56.2,35.3,56.4,34.9,56.4z M51.1,31.1c0,0-0.1,0-0.2,0.1L31.2,51
				c-0.1,0.1-0.1,0.3,0,0.4l3.5,3.5c0.1,0.1,0.3,0.1,0.4,0L54.8,35c0.1-0.1,0.1-0.3,0-0.4l-3.5-3.5C51.2,31.1,51.2,31.1,51.1,31.1z"
				/>
		</g>
		<path class="st0" d="M57.5,41.9l-1.4-1.4L43.4,53.3c-0.4,0.4-1,0.4-1.4,0l-2.1-2.1l-1.4,1.4c-0.4,0.4-0.4,1,0,1.4l3.5,3.5
			c0.4,0.4,1,0.4,1.4,0l14.1-14.1C57.9,43,57.9,42.3,57.5,41.9z"/>
		<g>
			<path class="st2" d="M42.7,58.5c-0.5,0-0.9-0.2-1.2-0.5l-3.5-3.5c-0.7-0.7-0.7-1.8,0-2.5L52,37.9c0.7-0.7,1.8-0.7,2.5,0l3.5,3.5
				c0.7,0.7,0.7,1.8,0,2.5L43.9,58C43.6,58.4,43.1,58.5,42.7,58.5z M53.3,38.9c0,0-0.1,0-0.2,0.1L38.9,53.1c-0.1,0.1-0.1,0.3,0,0.4
				l3.5,3.5c0.1,0.1,0.2,0.1,0.4,0L57,42.8c0.1-0.1,0.1-0.3,0-0.4l-3.5-3.5C53.4,38.9,53.3,38.9,53.3,38.9z"/>
		</g>
		<g>
			<path class="st2" d="M47,5.5h-9.7c-0.4,0-0.8-0.3-0.8-0.8c0-0.4,0.3-0.8,0.8-0.8H47c0.4,0,0.8,0.3,0.8,0.8
				C47.7,5.2,47.4,5.5,47,5.5z"/>
		</g>
		<g>
			<path class="st2" d="M33.3,5.5H31c-0.4,0-0.8-0.3-0.8-0.8C30.2,4.3,30.5,4,31,4h2.3C33.7,4,34,4.3,34,4.8
				C34,5.2,33.7,5.5,33.3,5.5z"/>
		</g>
		<g>
			<path class="st2" d="M37.5,61.5H22.8c-0.4,0-0.8-0.3-0.8-0.8s0.3-0.8,0.8-0.8h14.7c0.4,0,0.8,0.3,0.8,0.8S38,61.5,37.5,61.5z"/>
		</g>
		<g>
			<path class="st2" d="M18.8,61.5h-2.3c-0.4,0-0.8-0.3-0.8-0.8s0.3-0.8,0.8-0.8h2.3c0.4,0,0.8,0.3,0.8,0.8S19.3,61.5,18.8,61.5z"/>
		</g>
		<g>
			<path class="st2" d="M57.3,29.4c-1.5,0-2.8-1.2-2.8-2.8c0-1.5,1.2-2.8,2.8-2.8c1.5,0,2.8,1.2,2.8,2.8
				C60,28.1,58.8,29.4,57.3,29.4z M57.3,25.4c-0.7,0-1.2,0.6-1.2,1.2c0,0.7,0.6,1.2,1.2,1.2c0.7,0,1.2-0.6,1.2-1.2
				C58.5,25.9,57.9,25.4,57.3,25.4z"/>
		</g>
		<g>
			<path class="st2" d="M50.4,17.8c-1.5,0-2.8-1.2-2.8-2.7s1.2-2.8,2.8-2.8c1.5,0,2.8,1.2,2.8,2.8S51.9,17.8,50.4,17.8z M50.4,13.8
				c-0.7,0-1.2,0.6-1.2,1.2s0.6,1.2,1.2,1.2c0.7,0,1.2-0.6,1.2-1.2S51.1,13.8,50.4,13.8z"/>
		</g>
		<g>
			<path class="st2" d="M38.9,24.2c-1.5,0-2.8-1.2-2.8-2.8s1.2-2.8,2.8-2.8c1.5,0,2.8,1.2,2.8,2.8S40.4,24.2,38.9,24.2z M38.9,20.2
				c-0.7,0-1.2,0.6-1.2,1.2s0.6,1.2,1.2,1.2c0.7,0,1.2-0.6,1.2-1.2S39.6,20.2,38.9,20.2z"/>
		</g>
		<g>
			<path class="st2" d="M24.4,48.8c-1.5,0-2.8-1.2-2.8-2.8c0-1.5,1.2-2.8,2.8-2.8s2.8,1.2,2.8,2.8C27.1,47.5,25.9,48.8,24.4,48.8z
				 M24.4,44.8c-0.7,0-1.2,0.6-1.2,1.2c0,0.7,0.6,1.2,1.2,1.2c0.7,0,1.2-0.6,1.2-1.2C25.6,45.3,25.1,44.8,24.4,44.8z"/>
		</g>
		<g>
			<path class="st2" d="M10.4,44.8c-1.5,0-2.8-1.2-2.8-2.8c0-1.5,1.2-2.8,2.8-2.8s2.8,1.2,2.8,2.8C13.1,43.5,11.9,44.8,10.4,44.8z
				 M10.4,40.8c-0.7,0-1.2,0.6-1.2,1.2c0,0.7,0.6,1.2,1.2,1.2c0.7,0,1.2-0.6,1.2-1.2C11.6,41.3,11.1,40.8,10.4,40.8z"/>
		</g>
	</g>
</g>
</svg>
