
<svg 
	 x="0px" y="0px" width="65.5px" height="65.5px" viewBox="0 0 65.5 65.5" style="enable-background:new 0 0 65.5 65.5;"
	 xml:space="preserve">

<g>
	<g>
		<g>
			<polygon class="st1" points="64.7,64.8 0.7,64.8 8.8,48.8 56.7,48.8 			"/>
		</g>
		<g>
			<path class="st2" d="M64.8,65.5h-64c-0.3,0-0.5-0.1-0.6-0.4c-0.1-0.2-0.1-0.5,0-0.7l8-16C8.2,48.2,8.5,48,8.8,48h48
				c0.3,0,0.5,0.2,0.7,0.4l8,16c0.1,0.2,0.1,0.5,0,0.7C65.3,65.4,65,65.5,64.8,65.5z M2,64h61.6l-7.3-14.5H9.2L2,64z"/>
		</g>
		<g>
			<path class="st1" d="M50.3,8L50.3,8c-9.7-9.7-25.4-9.7-35.1,0h0c-9.7,9.7-9.7,25.4,0,35.1l17.6,17.6l17.6-17.6
				C60,33.5,60,17.7,50.3,8z"/>
		</g>
		<g>
			<path class="st2" d="M32.8,61.5c-0.2,0-0.4-0.1-0.5-0.2L14.6,43.7c-4.8-4.8-7.5-11.3-7.5-18.1c0-6.8,2.7-13.3,7.5-18.1
				C19.5,2.7,25.9,0,32.8,0C39.6,0,46,2.7,50.9,7.5l0,0l0,0c4.8,4.8,7.5,11.3,7.5,18.1c0,6.8-2.7,13.3-7.5,18.1L33.3,61.3
				C33.1,61.4,32.9,61.5,32.8,61.5z M32.8,1.5c-6.4,0-12.5,2.5-17,7.1c-4.6,4.6-7.1,10.6-7.1,17s2.5,12.5,7.1,17l17,17l17-17
				c4.6-4.6,7.1-10.6,7.1-17s-2.5-12.5-7.1-17l0,0C45.2,4,39.2,1.5,32.8,1.5z"/>
		</g>
		<g>
			<circle class="st1" cx="32.7" cy="25.6" r="18"/>
		</g>
		<g>
			<path class="st0" d="M37.6,8.3c6.2,4.1,9.1,9.2,9.6,15c0.9,10-6.8,18.6-18.8,18.3c-1.7,0-5.1-1.3-6.6-1.7c3,2.3,6.8,3.7,10.9,3.7
				c9.9,0,18-8.1,18-18C50.7,17.4,45.2,10.4,37.6,8.3z"/>
		</g>
		<g>
			<path class="st2" d="M32.8,44.4C22.4,44.4,14,35.9,14,25.6c0-10.3,8.4-18.8,18.8-18.8c10.3,0,18.8,8.4,18.8,18.8
				C51.5,35.9,43.1,44.4,32.8,44.4z M32.8,8.4c-9.5,0-17.2,7.7-17.2,17.2s7.7,17.2,17.2,17.2c9.5,0,17.2-7.7,17.2-17.2
				S42.3,8.4,32.8,8.4z"/>
		</g>
		<g>
			<path class="st1" d="M35.7,14.6h-8c-1.1,0-2,0.9-2,2v20c0,0.6,0.4,1,1,1h3c0.6,0,1-0.4,1-1v-6h5c3.3,0,6-2.7,6-6v-4
				C41.7,17.3,39.1,14.6,35.7,14.6z"/>
		</g>
		<g>
			<path class="st0" d="M38.9,15.5c0.6,0.9,0.9,2,0.9,3.1v5c0,2.8-2.2,5-5,5h-5c-0.6,0-1,0.4-1,1v5.5c0,0.3-0.2,0.5-0.5,0.5h-2.5v1
				c0,0.6,0.4,1,1,1h3c0.6,0,1-0.4,1-1v-6h5c3.3,0,6-2.7,6-6v-4C41.7,18.4,40.6,16.5,38.9,15.5z"/>
		</g>
		<g>
			<path class="st2" d="M29.7,38.4h-3c-1,0-1.8-0.8-1.8-1.8v-20c0-1.5,1.2-2.8,2.8-2.8h8c3.7,0,6.8,3,6.8,6.8v4c0,3.7-3,6.8-6.8,6.8
				h-4.2v5.2C31.5,37.6,30.7,38.4,29.7,38.4z M27.7,15.4c-0.7,0-1.2,0.6-1.2,1.2v20c0,0.1,0.1,0.2,0.2,0.2h3c0.1,0,0.2-0.1,0.2-0.2
				v-6c0-0.4,0.3-0.8,0.8-0.8h5c2.9,0,5.2-2.4,5.2-5.2v-4c0-2.9-2.4-5.2-5.2-5.2H27.7z"/>
		</g>
		<g>
			<path class="st2" d="M34.7,25.6h-4v-6h4c1.1,0,2,0.9,2,2v2C36.7,24.7,35.9,25.6,34.7,25.6z"/>
		</g>
		<g>
			<path class="st1" d="M33.7,23.6h-3v-4h4v3C34.7,23.2,34.3,23.6,33.7,23.6z"/>
		</g>
		<g>
			<path class="st2" d="M34.7,26.4h-4c-0.4,0-0.8-0.3-0.8-0.8v-6c0-0.4,0.3-0.8,0.8-0.8h4c1.5,0,2.8,1.2,2.8,2.8v2
				C37.5,25.1,36.3,26.4,34.7,26.4z M31.5,24.9h3.2c0.7,0,1.2-0.6,1.2-1.2v-2c0-0.7-0.6-1.2-1.2-1.2h-3.2V24.9z"/>
		</g>
		<g>
			<path class="st2" d="M26.1,61.5H14.4c-0.4,0-0.8-0.3-0.8-0.8c0-0.4,0.3-0.8,0.8-0.8h11.7c0.4,0,0.8,0.3,0.8,0.8
				C26.8,61.2,26.5,61.5,26.1,61.5z"/>
		</g>
		<g>
			<path class="st2" d="M10.4,61.5H8.1c-0.4,0-0.7-0.3-0.7-0.8c0-0.4,0.3-0.8,0.7-0.8h2.3c0.4,0,0.8,0.3,0.8,0.8
				C11.1,61.2,10.8,61.5,10.4,61.5z"/>
		</g>
		<g>
			<path class="st2" d="M21.7,34.7c-0.4,0-0.8-0.3-0.8-0.8v-8.7c0-0.4,0.3-0.8,0.8-0.8s0.8,0.3,0.8,0.8v8.7
				C22.5,34.4,22.2,34.7,21.7,34.7z"/>
		</g>
		<g>
			<path class="st2" d="M21.7,22c-0.4,0-0.8-0.3-0.8-0.8v-2.3c0-0.4,0.3-0.8,0.8-0.8s0.8,0.3,0.8,0.8v2.3C22.5,21.7,22.2,22,21.7,22
				z"/>
		</g>
	</g>
</g>
</svg>
