
<svg 
	 x="0px" y="0px" width="65.5px" height="65.5px" viewBox="0 0 65.5 65.5" style="enable-background:new 0 0 65.5 65.5;"
	 xml:space="preserve">

<g>
	<path class="st2" d="M32.8,65.5C14.7,65.5,0,50.8,0,32.8S14.7,0,32.8,0c18.1,0,32.8,14.7,32.8,32.8S50.8,65.5,32.8,65.5z M32.8,1.5
		c-17.2,0-31.2,14-31.2,31.2C1.5,50,15.5,64,32.8,64C50,64,64,50,64,32.8C64,15.5,50,1.5,32.8,1.5z"/>
</g>
<g>
	<path class="st2" d="M44.4,18.3c-0.1,0-0.1,0-0.2,0l-7.3-1.9c-0.3-0.1-0.6-0.4-0.6-0.7v-1.7c0,0,0-0.1,0-0.1c0.3-1.8,1.2-3,2.5-3.7
		c3.1-1.6,7.8,0.6,8,0.7c0.3,0.2,0.5,0.6,0.4,0.9l-2.2,6C45,18.1,44.7,18.3,44.4,18.3z M37.8,15.1l6,1.6l1.7-4.7
		c-1.3-0.5-4.1-1.4-6-0.5c-0.9,0.5-1.4,1.3-1.7,2.5V15.1z"/>
</g>
<g>
	<path class="st2" d="M21.4,18.3c-0.3,0-0.6-0.2-0.7-0.5l-2.2-6c-0.1-0.4,0-0.8,0.4-0.9c0.2-0.1,4.9-2.3,8-0.7
		c1.3,0.7,2.2,1.9,2.5,3.7c0,0,0,0.1,0,0.1v1.7c0,0.3-0.2,0.6-0.6,0.7l-7.3,1.9C21.5,18.3,21.5,18.3,21.4,18.3z M20.2,11.9l1.7,4.7
		l6-1.6V14c-0.2-1.3-0.8-2.1-1.7-2.5C24.4,10.5,21.5,11.4,20.2,11.9z"/>
</g>
<g>
	<path class="st1" d="M22.1,52.5c-3.3,0-6.2-2-7.4-5c-1.7-4.2-2.4-9.3-2.4-14.3c0-14.4,9.2-19.5,20.6-19.5h0
		c11.4,0,20.6,5.2,20.6,19.5c0,5-0.7,10.1-2.4,14.3c-1.2,3-4.2,5-7.4,5H22.1z"/>
</g>
<g>
	<path class="st0" d="M32.9,13.7c-5.1,0-9.8,1-13.3,3.5c2.8-1,6-1.5,9.3-1.5c0,0,0,0,0,0h0c0,0,0,0,0,0c11.4,0,20.6,5.2,20.6,19.5
		c0,5-0.7,10.1-2.4,14.3c-0.4,1.1-1.1,2.1-2,2.9c2.7-0.5,4.9-2.3,6-4.9c1.7-4.2,2.4-9.3,2.4-14.3C53.5,18.8,44.3,13.7,32.9,13.7z"/>
</g>
<g>
	<path class="st2" d="M43.7,53.3H22.1c-3.6,0-6.8-2.2-8.1-5.5c-1.6-4-2.5-9.1-2.5-14.6c0-13.1,7.6-20.3,21.4-20.3c0,0,0,0,0,0
		c0,0,0,0,0,0c13.8,0,21.4,7.2,21.4,20.3c0,5.5-0.9,10.5-2.5,14.6C50.4,51.1,47.3,53.3,43.7,53.3z M32.9,14.4
		c-9.1,0-19.9,3.3-19.9,18.8c0,5.3,0.8,10.1,2.4,14c1.1,2.8,3.7,4.5,6.7,4.5h21.5c3,0,5.6-1.8,6.7-4.5c1.5-3.9,2.4-8.7,2.4-14
		C52.8,17.7,42,14.4,32.9,14.4z"/>
</g>
<g>
	<path class="st1" d="M49.7,13.1c-3.5-1.7-6-3.7-7.7-0.2c-1.7,3.5-0.3,7.7,3.1,9.4c3.5,1.7,7.7,0.3,9.4-3.2c0.9-1.8,0.6-3-0.6-3.8
		C52.9,14.7,49.7,13.1,49.7,13.1z"/>
</g>
<g>
	<path class="st0" d="M53.9,15.3c-1-0.6-4.2-2.2-4.2-2.2c-3.2-1.6-5.5-3.3-7.2-1c1.2,0.3,2.6,1.2,4.2,2c0,0,3.2,1.6,4.2,2.2
		c1.2,0.8,1.6,2,0.6,3.8c-0.6,1.2-1.5,2.2-2.6,2.9c2.3-0.2,4.5-1.6,5.6-3.9C55.4,17.3,55.1,16.1,53.9,15.3z"/>
</g>
<g>
	<path class="st2" d="M48.2,23.8c-1.2,0-2.3-0.3-3.4-0.8c-3.8-1.9-5.4-6.6-3.5-10.4c0.6-1.2,1.3-1.9,2.2-2.2
		c1.6-0.5,3.3,0.4,5.3,1.4c0.4,0.2,0.8,0.4,1.2,0.6c0.2,0.1,3.2,1.6,4.2,2.2c1.1,0.7,2.2,2.2,0.9,4.8c-0.9,1.9-2.5,3.2-4.5,3.9
		C49.9,23.7,49,23.8,48.2,23.8z M44.5,11.8c-0.2,0-0.3,0-0.5,0.1c-0.5,0.2-0.9,0.6-1.3,1.4c-1.5,3.1-0.3,6.9,2.8,8.4
		c1.5,0.7,3.2,0.9,4.8,0.3c1.6-0.5,2.9-1.7,3.6-3.2c0.9-1.7,0.3-2.4-0.4-2.9c-0.9-0.6-4-2.1-4.1-2.2c0,0,0,0,0,0
		c-0.4-0.2-0.9-0.4-1.3-0.6C46.7,12.4,45.4,11.8,44.5,11.8z"/>
</g>
<g>
	<path class="st1" d="M16.1,13.1c3.5-1.7,6-3.7,7.7-0.2c1.7,3.5,0.3,7.7-3.1,9.4c-3.5,1.7-7.7,0.3-9.4-3.2c-0.9-1.8-0.6-3,0.6-3.8
		C12.9,14.7,16.1,13.1,16.1,13.1z"/>
</g>
<g>
	<path class="st0" d="M23.8,12.9c-1.1-2.2-2.5-2.2-4.2-1.5c0.4,0.3,0.9,0.8,1.2,1.5c1.7,3.5,0.3,7.7-3.1,9.4
		c-0.5,0.3-1.1,0.4-1.6,0.6c1.5,0.3,3.1,0.2,4.6-0.6C24.1,20.6,25.5,16.4,23.8,12.9z"/>
</g>
<g>
	<path class="st2" d="M17.6,23.8c-2.9,0-5.6-1.6-7-4.3c-1.3-2.6-0.2-4.1,0.9-4.8c1-0.7,4.1-2.2,4.2-2.2c0.4-0.2,0.8-0.4,1.2-0.6
		c2-1,3.7-1.9,5.3-1.4c0.9,0.3,1.6,1,2.2,2.2c1.9,3.8,0.3,8.5-3.5,10.4C19.9,23.6,18.7,23.8,17.6,23.8z M21.3,11.8
		c-0.9,0-2.2,0.7-3.6,1.4c-0.4,0.2-0.8,0.4-1.3,0.6c0,0,0,0,0,0c0,0-3.1,1.5-4.1,2.2c-0.7,0.4-1.2,1.1-0.4,2.9
		c1.5,3.1,5.3,4.4,8.4,2.8c3.1-1.5,4.3-5.3,2.8-8.4c-0.4-0.8-0.8-1.3-1.3-1.4C21.6,11.8,21.4,11.8,21.3,11.8z M16.1,13.1L16.1,13.1
		L16.1,13.1z"/>
</g>
<g>
	<path class="st1" d="M32.9,53.6c0,0.6-0.1,1.2-0.3,1.7c-0.9,2.6-3.9,3.7-6.4,2.6c-1.8-0.8-3.5-1.8-5-3.1c-2-1.8-3-4.5-2.5-7.1
		c1.5-8.1,7.3-11.2,14.3-11.2c6.9,0,12.7,3,14.3,11.2c0.5,2.6-0.5,5.4-2.5,7.1c-1.5,1.3-3.2,2.4-5,3.1c-2.5,1.1-5.5-0.1-6.4-2.6
		C33,54.7,32.9,54.2,32.9,53.6z"/>
</g>
<g>
	<path class="st0" d="M47.1,47.6c-1.5-8.1-7.3-11.2-14.3-11.2c-4,0-7.6,1-10.3,3.4c2.1-1,4.6-1.4,7.3-1.4c6.9,0,12.7,3,14.3,11.2
		c0.5,2.6-0.5,5.4-2.5,7.1c-0.2,0.2-0.4,0.3-0.6,0.4c1.3-0.7,2.5-1.5,3.6-2.4C46.6,53,47.6,50.3,47.1,47.6z"/>
</g>
<g>
	<path class="st2" d="M28.1,59c-0.8,0-1.5-0.2-2.2-0.5c-1.8-0.8-3.6-1.9-5.2-3.3c-2.3-2-3.3-5-2.8-7.8c1.4-7.6,6.8-11.8,15-11.8
		c8.2,0,13.6,4.2,15,11.8c0.5,2.9-0.5,5.9-2.8,7.8c-1.6,1.4-3.3,2.5-5.2,3.3c-1.4,0.6-3.1,0.6-4.6,0c-1.1-0.5-1.9-1.2-2.5-2.2
		c-0.6,0.9-1.4,1.7-2.5,2.2C29.7,58.9,28.9,59,28.1,59z M32.9,37.2c-5.3,0-11.9,1.8-13.5,10.6c-0.4,2.4,0.4,4.8,2.3,6.4
		c1.5,1.3,3.1,2.3,4.8,3c1.1,0.5,2.3,0.4,3.4,0c1-0.4,1.7-1.2,2.1-2.2c0.2-0.5,0.2-0.9,0.2-1.4c0-0.4,0.3-0.8,0.8-0.8
		c0.4,0,0.8,0.3,0.8,0.8c0,0.5,0.1,1,0.2,1.4c0.3,1,1.1,1.7,2.1,2.2c1.1,0.5,2.3,0.5,3.4,0c1.7-0.7,3.3-1.7,4.8-3
		c1.9-1.6,2.7-4.1,2.3-6.4C44.8,39,38.1,37.2,32.9,37.2z"/>
</g>
<g>
	<path class="st2" d="M32.9,54.3c-0.4,0-0.8-0.3-0.8-0.8v-5.2c0-0.4,0.3-0.8,0.8-0.8c0.4,0,0.8,0.3,0.8,0.8v5.2
		C33.6,54,33.3,54.3,32.9,54.3z"/>
</g>
<g>
	<path class="st1" d="M32.9,41.9c-2.7,0-4.9,0.1-4.9,2.7c0,2.6,4.9,3.8,4.9,3.8s4.9-1.3,4.9-3.8C37.8,42,35.6,41.9,32.9,41.9z"/>
</g>
<g>
	<path class="st2" d="M37.8,44.6c0-2.6-2.2-2.7-4.9-2.7c-2.5,0-4.6,0.1-4.9,2.2c0.8-0.2,1.8-0.2,2.9-0.2c2.7,0,4.9,0.1,4.9,2.7
		c0,0.3-0.1,0.5-0.1,0.7C36.7,46.7,37.8,45.8,37.8,44.6z"/>
</g>
<g>
	<path class="st2" d="M32.9,49.2c-0.1,0-0.1,0-0.2,0c-0.6-0.1-5.4-1.5-5.4-4.6c0-3.4,3.3-3.4,5.6-3.4c2.4,0,5.6,0,5.6,3.4
		c0,3.1-4.9,4.4-5.4,4.6C33,49.2,32.9,49.2,32.9,49.2z M32.9,42.7c-3.1,0-4.1,0.3-4.1,1.9c0,1.5,2.9,2.7,4.1,3.1
		c1.3-0.4,4.1-1.5,4.1-3.1C37,42.9,36,42.7,32.9,42.7z"/>
</g>
<g>
	<circle class="st2" cx="41.9" cy="47.4" r="0.8"/>
</g>
<g>
	<circle class="st2" cx="38.9" cy="49.4" r="0.8"/>
</g>
<g>
	<circle class="st2" cx="40.9" cy="52.4" r="0.8"/>
</g>
<g>
	<circle class="st2" cx="37.9" cy="54.4" r="0.8"/>
</g>
<g>
	<circle class="st2" cx="23.9" cy="47.4" r="0.8"/>
</g>
<g>
	<circle class="st2" cx="26.9" cy="49.4" r="0.8"/>
</g>
<g>
	<circle class="st2" cx="24.9" cy="52.4" r="0.8"/>
</g>
<g>
	<circle class="st2" cx="27.9" cy="54.4" r="0.8"/>
</g>
<g>
	<path class="st2" d="M24.6,24.6c-1.9,0-3.4,0.8-3.7,2.9c0.7-0.6,1.7-0.9,2.7-0.9c2.1,0,3.8,1,3.8,3.7c0,0.6-0.1,1.1-0.2,1.6
		c0.8-0.9,1.2-2.2,1.2-3.6C28.4,25.6,26.7,24.6,24.6,24.6z"/>
</g>
<g>
	<path class="st2" d="M24.6,34.1c-2.5,0-4.5-2.6-4.5-5.7c0-2.8,1.7-4.5,4.5-4.5c2.9,0,4.5,1.6,4.5,4.5
		C29.2,31.5,27.1,34.1,24.6,34.1z M24.6,25.4c-2.1,0-3,1-3,3c0,2.3,1.4,4.2,3,4.2c1.7,0,3-1.9,3-4.2C27.7,26.3,26.7,25.4,24.6,25.4z
		"/>
</g>
<g>
	<circle class="st2" cx="24.6" cy="28.4" r="0.8"/>
</g>
<g>
	<path class="st2" d="M39.9,26.6c2.1,0,3.8,1,3.8,3.7c0,0.6-0.1,1.1-0.2,1.6c0.8-0.9,1.2-2.2,1.2-3.6c0-2.7-1.7-3.7-3.8-3.7
		c-1.9,0-3.4,0.8-3.7,2.9C37.9,26.9,38.8,26.6,39.9,26.6z"/>
</g>
<g>
	<circle class="st2" cx="40.9" cy="28.4" r="0.8"/>
</g>
<g>
	<path class="st2" d="M40.9,34.1c-2.5,0-4.5-2.6-4.5-5.7c0-2.8,1.7-4.5,4.5-4.5c2.9,0,4.5,1.6,4.5,4.5
		C45.5,31.5,43.4,34.1,40.9,34.1z M40.9,25.4c-2.1,0-3,1-3,3c0,2.3,1.4,4.2,3,4.2c1.7,0,3-1.9,3-4.2C44,26.3,43,25.4,40.9,25.4z"/>
</g>
<g>
	<circle class="st1" cx="59.8" cy="5.8" r="2"/>
</g>
<g>
	<circle class="st1" cx="62.8" cy="56.7" r="2"/>
</g>
</svg>
