<!-- Generator: Adobe Illustrator 22.0.0, SVG Export Plug-In  -->
<svg 
	 x="0px" y="0px" width="65.5px" height="65.5px" viewBox="0 0 65.5 65.5" style="enable-background:new 0 0 65.5 65.5;"
	 xml:space="preserve">

<g>
	<path class="st2" d="M32.8,65.5C14.7,65.5,0,50.8,0,32.8C0,14.7,14.7,0,32.8,0c18.1,0,32.8,14.7,32.8,32.8
		C65.5,50.8,50.8,65.5,32.8,65.5z M32.8,1.5c-17.2,0-31.3,14-31.3,31.3C1.5,50,15.5,64,32.8,64C50,64,64,50,64,32.8
		C64,15.5,50,1.5,32.8,1.5z"/>
</g>
<g>
	<path class="st2" d="M32.8,55c-12.3,0-22.2-10-22.2-22.2c0-12.3,10-22.2,22.2-22.2C45,10.5,55,20.5,55,32.8C55,45,45,55,32.8,55z
		 M32.8,12C21.3,12,12,21.3,12,32.8s9.3,20.8,20.8,20.8s20.8-9.3,20.8-20.8S44.2,12,32.8,12z"/>
</g>
<g>
	<path class="st2" d="M23.8,28.5c-0.4,0-0.8-0.3-0.8-0.8v-19C23,8.3,23.3,8,23.8,8c0.4,0,0.8,0.3,0.8,0.8v19
		C24.5,28.2,24.2,28.5,23.8,28.5z"/>
</g>
<g>
	<path class="st2" d="M16.8,28.5c-0.4,0-0.8-0.3-0.8-0.8v-19C16,8.3,16.3,8,16.8,8c0.4,0,0.8,0.3,0.8,0.8v19
		C17.5,28.2,17.2,28.5,16.8,28.5z"/>
</g>
<g>
	<path class="st2" d="M30.8,28.5c-0.4,0-0.8-0.3-0.8-0.8v-19C30,8.3,30.3,8,30.8,8c0.4,0,0.8,0.3,0.8,0.8v19
		C31.5,28.2,31.2,28.5,30.8,28.5z"/>
</g>
<g>
	<path class="st1" d="M23.8,27.8c-1.9,2-5.1,2-7,0v5c0,2.2,1.8,4,4,4l0,0c0.3,0,0.5,0.2,0.5,0.5v25.5c0,1.1,0.9,2,2,2h1.1
		c1.1,0,2-0.9,2-2V37.2c0-0.3,0.2-0.5,0.5-0.5l0,0c2.2,0,4-1.8,4-4v-5C28.8,29.8,25.7,29.8,23.8,27.8z"/>
</g>
<g>
	<path class="st0" d="M28.4,29.1V32c0,1.6-1.3,2.9-2.9,2.9h-1.1c-0.3,0-0.5,0.2-0.5,0.5v26c0,0.6-0.4,1-1,1h-1.7v0.3
		c0,1.1,0.9,2,2,2h1.1c1.1,0,2-0.9,2-2V37.2c0-0.3,0.2-0.5,0.5-0.5c2.2,0,4-1.8,4-4v-5C30.1,28.4,29.3,28.9,28.4,29.1z"/>
</g>
<g>
	<path class="st2" d="M24.3,65.5h-1.1c-1.5,0-2.7-1.2-2.7-2.7V37.5C18,37.4,16,35.3,16,32.8v-5c0-0.3,0.2-0.6,0.5-0.7
		c0.3-0.1,0.6,0,0.8,0.2c0.8,0.8,1.8,1.3,3,1.3c1.1,0,2.2-0.5,3-1.3c0.3-0.3,0.8-0.3,1.1,0c0.8,0.8,1.8,1.3,3,1.3
		c1.1,0,2.2-0.5,3-1.3c0.2-0.2,0.5-0.3,0.8-0.2c0.3,0.1,0.5,0.4,0.5,0.7v5c0,2.5-2,4.6-4.5,4.7v25.3C27,64.3,25.8,65.5,24.3,65.5z
		 M17.5,29.3v3.5c0,1.8,1.5,3.2,3.2,3.2c0.7,0,1.2,0.6,1.2,1.2v25.5c0,0.7,0.5,1.2,1.2,1.2h1.1c0.7,0,1.2-0.5,1.2-1.2V37.2
		c0-0.7,0.6-1.2,1.2-1.2c1.8,0,3.2-1.5,3.2-3.2v-3.5c-1.9,1.1-4.5,0.9-6.2-0.5C22,30.2,19.4,30.4,17.5,29.3z"/>
</g>
<g>
	<path class="st1" d="M44.8,32.6V9.8c0-0.6-0.5-1-1-1c-4.4,0-8,3.6-8,8v21.9c0,1.9,1.1,3.6,2.8,4.3l0,0c0.7,0.3,1.2,1,1.2,1.8v17.9
		c0,1.1,0.9,2,2,2h1c1.1,0,2-0.9,2-2V32.6L44.8,32.6z"/>
</g>
<g>
	<path class="st0" d="M44.8,32.6V9.8c0-0.6-0.5-1-1-1c-0.5,0-0.9,0-1.3,0.1v21.5l0,0v31.1c0,0.6-0.4,1-1,1h-1.7v0.3c0,1.1,0.9,2,2,2
		h1c1.1,0,2-0.9,2-2V32.6L44.8,32.6z"/>
</g>
<g>
	<path class="st2" d="M42.8,65.5h-1c-1.5,0-2.8-1.2-2.8-2.8V44.8c0-0.5-0.3-0.9-0.7-1.1c-2-0.9-3.3-2.8-3.3-5V16.8
		c0-4.8,3.9-8.7,8.7-8.8c1,0,1.8,0.8,1.8,1.8v53C45.5,64.3,44.3,65.5,42.8,65.5z M43.7,9.5c-4,0-7.2,3.3-7.2,7.2v21.9
		c0,1.6,0.9,3,2.4,3.6c1,0.4,1.6,1.4,1.6,2.5v17.9c0,0.7,0.6,1.2,1.2,1.2h1c0.7,0,1.2-0.6,1.2-1.2v-53C44,9.6,43.9,9.5,43.7,9.5z"/>
</g>
<g>
	<path class="st2" d="M4.9,36.2c-0.4,0-0.7-0.3-0.7-0.7C4,34.6,4,33.7,4,32.8c0-6.3,2-12.3,5.8-17.4c0.3-0.3,0.7-0.4,1.1-0.1
		c0.3,0.3,0.4,0.7,0.1,1.1c-3.6,4.8-5.5,10.5-5.5,16.5c0,0.9,0,1.8,0.1,2.6C5.7,35.8,5.4,36.2,4.9,36.2C4.9,36.2,4.9,36.2,4.9,36.2z
		"/>
</g>
<g>
	<path class="st2" d="M6.7,43.7c-0.3,0-0.6-0.2-0.7-0.5c-0.4-1-0.7-2-1-3.1c-0.1-0.4,0.1-0.8,0.5-0.9c0.4-0.1,0.8,0.1,0.9,0.5
		c0.3,1,0.6,2,1,2.9c0.2,0.4,0,0.8-0.4,1C6.9,43.7,6.8,43.7,6.7,43.7z"/>
</g>
<g>
	<circle class="st1" cx="5.8" cy="5.8" r="2"/>
</g>
<g>
	<circle class="st1" cx="10.8" cy="62.8" r="2"/>
</g>
</svg>
