<!-- Generator: Adobe Illustrator 22.0.0, SVG Export Plug-In  -->
<svg 
	 x="0px" y="0px" width="55.5px" height="65.5px" viewBox="0 0 55.5 65.5" style="enable-background:new 0 0 55.5 65.5;"
	 xml:space="preserve">

<g>
	<g>
		<g>
			<path class="st0" d="M21.8,4.7c0-2.2,6-4,6-4s6,1.8,6,4h9v13h-30v-13H21.8z"/>
		</g>
		<g>
			<path class="st1" d="M21.8,4.7c0-2.2,6-4,6-4s6,1.8,6,4h9v6h-25c-0.6,0-1-0.4-1-1v-5H21.8z"/>
		</g>
		<g>
			<path class="st2" d="M12,17.7v-13C12,4.3,12.3,4,12.8,4h8.4c0.9-2.2,5.4-3.7,6.4-4c0.1,0,0.3,0,0.4,0c1,0.3,5.5,1.8,6.4,4h8.4
				c0.4,0,0.8,0.3,0.8,0.7v13c0,0.4-0.3,0.8-0.8,0.8h-30C12.3,18.5,12,18.2,12,17.7z M42,5.5h-8.2c-0.4,0-0.8-0.3-0.8-0.8
				c0-1-3-2.5-5.2-3.2c-2.3,0.7-5.2,2.2-5.2,3.2c0,0.4-0.3,0.8-0.8,0.8h-8.3V17H42V5.5z M21,4.7L21,4.7L21,4.7z"/>
		</g>
		<g>
			<path class="st2" d="M42.8,18.5c0.4,0,0.8-0.3,0.8-0.8v-15c0-0.4-0.3-0.7-0.8-0.7C42.3,2,42,2.3,42,2.7v15
				C42,18.2,42.3,18.5,42.8,18.5z"/>
		</g>
		<g>
			<path class="st2" d="M12.8,18.5c0.4,0,0.8-0.3,0.8-0.8v-15c0-0.4-0.3-0.7-0.8-0.7C12.3,2,12,2.3,12,2.7v15
				C12,18.2,12.3,18.5,12.8,18.5z"/>
		</g>
		<g>
			<polygon class="st0" points="12.8,17.7 42.8,17.7 46.1,26.7 9.4,26.7 			"/>
		</g>
		<g>
			<path class="st1" d="M16,17.7h26.7l2.6,7H14.8c-0.7,0-1.2-0.7-0.9-1.4L16,17.7z"/>
		</g>
		<g>
			<path class="st2" d="M8.8,27.2c-0.1-0.2-0.2-0.5-0.1-0.7l3.4-9c0.1-0.3,0.4-0.5,0.7-0.5h30c0.3,0,0.6,0.2,0.7,0.5l3.4,9
				c0.1,0.2,0.1,0.5-0.1,0.7c-0.1,0.2-0.4,0.3-0.6,0.3H9.4C9.1,27.5,8.9,27.4,8.8,27.2z M42.2,18.5h-29L10.5,26H45L42.2,18.5z"/>
		</g>
		<g>
			<polygon class="st0" points="46.1,26.7 51.8,41.7 3.8,41.7 9.4,26.7 			"/>
		</g>
		<g>
			<path class="st1" d="M46.1,26.7l4.1,11H11.2c-0.7,0-1.2-0.7-0.9-1.4l3.6-9.7H46.1z"/>
		</g>
		<g>
			<path class="st2" d="M3.1,42.2C3,42,3,41.7,3.1,41.5l5.6-15C8.8,26.2,9.1,26,9.4,26h36.7c0.3,0,0.6,0.2,0.7,0.5l5.6,15
				c0.1,0.2,0.1,0.5-0.1,0.7c-0.1,0.2-0.4,0.3-0.6,0.3h-48C3.5,42.5,3.3,42.4,3.1,42.2z M45.6,27.5H9.9L4.8,41h45.8L45.6,27.5z"/>
		</g>
		<g>
			<path class="st1" d="M19.8,21.7h16c1.1,0,2-0.9,2-2l0,0c0-3.3-2.7-6-6-6h-8c-3.3,0-6,2.7-6,6l0,0C17.8,20.9,18.7,21.7,19.8,21.7z
				"/>
		</g>
		<g>
			<path class="st0" d="M23.8,13.7h8h-2c-3.3,0-7.6,2.3-7.6,5.6c0,1.1,0.4,2.4,1.6,2.4h-4c-1.1,0-2-0.9-2-2
				C17.8,16.4,20.5,13.7,23.8,13.7z"/>
		</g>
		<g>
			<path class="st2" d="M17.1,19.7c0-3.7,3-6.8,6.8-6.8h8c3.7,0,6.8,3,6.8,6.8c0,1.5-1.2,2.8-2.8,2.8h-16
				C18.3,22.5,17.1,21.3,17.1,19.7z M23.8,14.5c-2.9,0-5.2,2.4-5.2,5.2c0,0.7,0.6,1.2,1.2,1.2h16c0.7,0,1.2-0.6,1.2-1.2
				c0-2.9-2.4-5.2-5.2-5.2H23.8z"/>
		</g>
		<g>
			<path class="st2" d="M54.8,65.5c0.4,0,0.8-0.3,0.8-0.8v-27c0-0.4-0.3-0.8-0.8-0.8c-0.4,0-0.8,0.3-0.8,0.8v27
				C54,65.2,54.3,65.5,54.8,65.5z"/>
		</g>
		<g>
			<path class="st2" d="M0.8,65.5c0.4,0,0.8-0.3,0.8-0.8v-27c0-0.4-0.3-0.8-0.8-0.8S0,37.3,0,37.7l0,27C0,65.2,0.3,65.5,0.8,65.5z"
				/>
		</g>
		<g>
			<path class="st0" d="M13.8,41.7c0-3.3,14-7,14-7s14,3.7,14,7h13v17h-54v-17H13.8z"/>
		</g>
		<g>
			<path class="st1" d="M13.8,41.7c0-3.3,14-7,14-7s14,3.7,14,7h13v12h-47c-1.1,0-2-0.9-2-2v-10H13.8z"/>
		</g>
		<g>
			<path class="st2" d="M0,58.7l0-17C0,41.3,0.3,41,0.8,41h12.4c1.4-3.3,11.2-6.1,14.4-7c0.1,0,0.3,0,0.4,0c3.2,0.8,13,3.7,14.4,7
				h12.4c0.4,0,0.8,0.3,0.8,0.8v17c0,0.4-0.3,0.8-0.8,0.8h-54C0.3,59.5,0,59.2,0,58.7z M54,42.5H41.8c-0.4,0-0.8-0.3-0.8-0.8
				c0-1.7-6.8-4.5-13.2-6.2c-6.4,1.7-13.2,4.6-13.2,6.2c0,0.4-0.3,0.8-0.8,0.8H1.5V58H54V42.5z"/>
		</g>
		<g>
			<path class="st2" d="M23.8,51.5h15.7c0.4,0,0.8-0.3,0.8-0.8S39.9,50,39.5,50H23.8c-0.4,0-0.8,0.3-0.8,0.8S23.3,51.5,23.8,51.5z"
				/>
		</g>
		<g>
			<path class="st2" d="M43.5,51.5h2.3c0.4,0,0.8-0.3,0.8-0.8S46.2,50,45.8,50h-2.3c-0.4,0-0.8,0.3-0.8,0.8S43,51.5,43.5,51.5z"/>
		</g>
	</g>
</g>
</svg>
