<!-- Generator: Adobe Illustrator 22.0.0, SVG Export Plug-In  -->
<svg
	 x="0px" y="0px" width="65.5px" height="65.5px" viewBox="0 0 65.5 65.5" style="enable-background:new 0 0 65.5 65.5;"
	 xml:space="preserve">

<g>
	<g>
		<g>
			<polygon class="st0" points="62.8,64.8 48.8,64.8 48.8,39.8 62.8,44.8 			"/>
		</g>
		<g>
			<path class="st1" d="M57.8,60.8h-9v-21l12,4.3v13.7C60.8,59.4,59.4,60.8,57.8,60.8z"/>
		</g>
		<g>
			<path class="st2" d="M62.8,65.5h-14c-0.4,0-0.8-0.3-0.8-0.8v-25c0-0.2,0.1-0.5,0.3-0.6C48.5,39,48.8,39,49,39l14,5
				c0.3,0.1,0.5,0.4,0.5,0.7v20C63.5,65.2,63.2,65.5,62.8,65.5z M49.5,64H62V45.3l-12.5-4.5V64z"/>
		</g>
		<g>
			<path class="st2" d="M64.8,46.2c-0.1,0-0.2,0-0.3,0l-16-5.7c-0.4-0.1-0.6-0.6-0.5-1c0.1-0.4,0.6-0.6,1-0.5l16,5.7
				c0.4,0.1,0.6,0.6,0.5,1C65.3,46,65.1,46.2,64.8,46.2z"/>
		</g>
		<g>
			<path class="st1" d="M58.3,57.8h-5v-7.5c0-1.4,1.1-2.5,2.5-2.5l0,0c1.4,0,2.5,1.1,2.5,2.5V57.8z"/>
		</g>
		<g>
			<path class="st0" d="M56.2,47.8c0,0.1,0,0.3,0,0.5v6.5c0,0.6-0.4,1-1,1h-2v2h5v-7.5C58.3,49,57.4,48,56.2,47.8z"/>
		</g>
		<g>
			<path class="st2" d="M58.3,58.5h-5c-0.4,0-0.8-0.3-0.8-0.8v-7.5c0-1.8,1.5-3.2,3.2-3.2s3.2,1.5,3.2,3.2v7.5
				C59,58.2,58.7,58.5,58.3,58.5z M54,57h3.5v-6.8c0-1-0.8-1.8-1.8-1.8c-1,0-1.8,0.8-1.8,1.8V57z"/>
		</g>
		<g>
			<polygon class="st0" points="16.7,64.8 2.7,64.8 2.7,44.8 16.7,39.8 			"/>
		</g>
		<g>
			<path class="st1" d="M11.7,60.8h-9l0-16l12-4.3v17.3C14.7,59.4,13.4,60.8,11.7,60.8z"/>
		</g>
		<g>
			<path class="st2" d="M16.7,65.5h-14c-0.4,0-0.7-0.3-0.7-0.8v-20c0-0.3,0.2-0.6,0.5-0.7l14-5c0.2-0.1,0.5,0,0.7,0.1
				c0.2,0.1,0.3,0.4,0.3,0.6v25C17.5,65.2,17.2,65.5,16.7,65.5z M3.5,64H16V40.8L3.5,45.3V64z"/>
		</g>
		<g>
			<path class="st2" d="M0.8,46.2c-0.3,0-0.6-0.2-0.7-0.5c-0.1-0.4,0.1-0.8,0.5-1l16-5.7c0.4-0.1,0.8,0.1,1,0.5
				c0.1,0.4-0.1,0.8-0.5,1L1,46.2C0.9,46.2,0.8,46.2,0.8,46.2z"/>
		</g>
		<g>
			<path class="st1" d="M12.2,57.8h-5v-7.5c0-1.4,1.1-2.5,2.5-2.5l0,0c1.4,0,2.5,1.1,2.5,2.5V57.8z"/>
		</g>
		<g>
			<path class="st0" d="M10.2,47.8c0,0.1,0,0.3,0,0.5v6.5c0,0.6-0.4,1-1,1h-2v2h5v-7.5C12.2,49,11.4,48,10.2,47.8z"/>
		</g>
		<g>
			<path class="st2" d="M12.2,58.5h-5c-0.4,0-0.8-0.3-0.8-0.8v-7.5C6.5,48.5,8,47,9.7,47s3.2,1.5,3.2,3.2v7.5
				C13,58.2,12.7,58.5,12.2,58.5z M8,57h3.5v-6.8c0-1-0.8-1.8-1.8-1.8c-1,0-1.8,0.8-1.8,1.8V57z"/>
		</g>
		<g>
			<rect x="16.8" y="20.8" class="st0" width="32" height="44"/>
		</g>
		<g>
			<path class="st1" d="M43.7,60.7h-27v-40h29v38C45.7,59.9,44.9,60.7,43.7,60.7z"/>
		</g>
		<g>
			<path class="st2" d="M48.8,65.5h-32c-0.4,0-0.8-0.3-0.8-0.8v-44c0-0.4,0.3-0.8,0.8-0.8h32c0.4,0,0.8,0.3,0.8,0.8v44
				C49.5,65.2,49.2,65.5,48.8,65.5z M17.5,64H48V21.5H17.5V64z"/>
		</g>
		<g>
			<path class="st1" d="M41.8,64.7h-18v-14c0-5,4-9,9-9l0,0c5,0,9,4,9,9V64.7z"/>
		</g>
		<g>
			<path class="st0" d="M41.8,50.8c0-5-4-9-9-9c-1.5,0-2.9,0.4-4.1,1c0,0,0.1,0,0.1,0c5,0,9,4,9,9v13h4V50.8z"/>
		</g>
		<g>
			<path class="st2" d="M41.8,65.5h-18c-0.4,0-0.8-0.3-0.8-0.8v-14c0-5.4,4.4-9.8,9.8-9.8c5.4,0,9.8,4.4,9.8,9.8v14
				C42.5,65.2,42.2,65.5,41.8,65.5z M24.5,64H41V50.8c0-4.5-3.7-8.2-8.2-8.2c-4.5,0-8.2,3.7-8.2,8.2V64z"/>
		</g>
		<g>
			<path class="st2" d="M64.8,65.5h-64c-0.4,0-0.8-0.3-0.8-0.8C0,64.3,0.3,64,0.8,64h64c0.4,0,0.8,0.3,0.8,0.7
				C65.5,65.2,65.2,65.5,64.8,65.5z"/>
		</g>
		<g>
			<path class="st1" d="M12.8,35.2c8.8,3.9,20-1,20-1s-3.2-11.3-12-15.2c-8.8-3.9-20,1-20,1S3.9,31.3,12.8,35.2z"/>
		</g>
		<g>
			<path class="st2" d="M20.6,37.5c-2.7,0-5.5-0.4-8.1-1.6C3.4,31.9,0.2,20.8,0,20.3c-0.1-0.4,0.1-0.7,0.4-0.9
				c0.5-0.2,11.5-5,20.6-1c9.1,4,12.3,15.2,12.4,15.6c0.1,0.4-0.1,0.7-0.4,0.9C32.7,35.1,27.1,37.5,20.6,37.5z M1.7,20.5
				c0.8,2.4,4.2,10.9,11.4,14c7.3,3.2,16.3,0.2,18.7-0.8c-0.8-2.4-4.2-10.9-11.4-14C13.2,16.5,4.1,19.6,1.7,20.5z"/>
		</g>
		<g>
			<path class="st1" d="M14.9,25.6c5.6,7.6,17.8,8.6,17.8,8.6s3.2-11.3-2.4-18.8c-5.6-7.6-17.8-8.6-17.8-8.6S9.3,18.1,14.9,25.6z"/>
		</g>
		<g>
			<path class="st2" d="M32.7,35C32.7,35,32.7,35,32.7,35c-0.6,0-12.7-1.1-18.4-8.9l0,0c-5.7-7.8-2.7-19-2.5-19.5
				c0.1-0.3,0.4-0.6,0.8-0.5c0.5,0,12.6,1.1,18.4,8.9c5.7,7.8,2.7,19,2.5,19.5C33.4,34.8,33.1,35,32.7,35z M13.1,7.6
				C12.5,10,10.9,19,15.5,25.2l0,0c4.6,6.2,14.1,7.9,16.7,8.2c0.5-2.4,2.1-11.4-2.5-17.6C25.1,9.6,15.6,8,13.1,7.6z"/>
		</g>
		<g>
			<path class="st1" d="M52.7,35.2c-8.8,3.9-20-1-20-1s3.2-11.3,12-15.2c8.8-3.9,20,1,20,1S61.6,31.3,52.7,35.2z"/>
		</g>
		<g>
			<path class="st2" d="M44.9,37.5c-6.5,0-12.1-2.4-12.5-2.6c-0.3-0.2-0.5-0.5-0.4-0.9c0.1-0.5,3.4-11.6,12.4-15.6
				c9-4,20.1,0.8,20.6,1c0.3,0.2,0.5,0.5,0.4,0.9c-0.1,0.5-3.4,11.6-12.4,15.6C50.4,37.1,47.6,37.5,44.9,37.5z M33.7,33.8
				c2.4,0.9,11.5,4,18.7,0.8c7.2-3.2,10.6-11.7,11.4-14c-2.4-0.9-11.5-4-18.7-0.8C37.8,22.9,34.5,31.4,33.7,33.8z"/>
		</g>
		<g>
			<path class="st1" d="M50.6,25.6c-5.6,7.6-17.8,8.6-17.8,8.6S29.6,23,35.2,15.4C40.8,7.8,53,6.8,53,6.8S56.2,18.1,50.6,25.6z"/>
		</g>
		<g>
			<path class="st2" d="M32.8,35c-0.3,0-0.6-0.2-0.7-0.5C31.9,34,28.8,22.7,34.6,15C40.3,7.2,52.4,6.1,53,6.1c0.4,0,0.7,0.2,0.8,0.5
				c0.1,0.5,3.2,11.7-2.5,19.5C45.5,33.8,33.3,34.9,32.8,35C32.8,35,32.8,35,32.8,35z M52.4,7.6c-2.5,0.3-12.1,2-16.7,8.2
				c-4.6,6.2-3,15.2-2.5,17.6c2.5-0.3,12.1-2,16.7-8.2l0,0C54.6,19,53,10,52.4,7.6z"/>
		</g>
		<g>
			<path class="st1" d="M42.2,17.5c0,9.2-9.4,16.7-9.4,16.7s-9.4-7.5-9.4-16.7c0-9.2,9.4-16.7,9.4-16.7S42.2,8.2,42.2,17.5z"/>
		</g>
		<g>
			<path class="st2" d="M32.8,35c-0.2,0-0.3-0.1-0.5-0.2c-0.4-0.3-9.7-7.8-9.7-17.3c0-9.5,9.3-17,9.7-17.3c0.3-0.2,0.7-0.2,0.9,0
				c0.4,0.3,9.7,7.8,9.7,17.3c0,9.5-9.3,17-9.7,17.3C33.1,34.9,32.9,35,32.8,35z M32.8,1.7c-1.9,1.6-8.7,8.2-8.7,15.8
				c0,7.6,6.8,14.1,8.7,15.8c1.9-1.6,8.7-8.2,8.7-15.8C41.4,9.9,34.6,3.4,32.8,1.7z"/>
		</g>
		<g>
			<circle class="st1" cx="60.8" cy="37.6" r="2"/>
		</g>
		<g>
			<circle class="st1" cx="19.7" cy="2.8" r="2"/>
		</g>
		<g>
			<circle class="st1" cx="42.8" cy="3.6" r="2"/>
		</g>
		<g>
			<circle class="st1" cx="29.8" cy="13.6" r="2"/>
		</g>
		<g>
			<path class="st2" d="M29.8,16.4c-1.5,0-2.8-1.2-2.8-2.8s1.2-2.8,2.8-2.8c1.5,0,2.8,1.2,2.8,2.8S31.3,16.4,29.8,16.4z M29.8,12.4
				c-0.7,0-1.2,0.6-1.2,1.2c0,0.7,0.6,1.2,1.2,1.2c0.7,0,1.2-0.6,1.2-1.2C31,12.9,30.4,12.4,29.8,12.4z"/>
		</g>
		<g>
			<circle class="st1" cx="34.8" cy="23.6" r="2"/>
		</g>
		<g>
			<path class="st2" d="M34.8,26.4c-1.5,0-2.8-1.2-2.8-2.8s1.2-2.8,2.8-2.8c1.5,0,2.8,1.2,2.8,2.8S36.3,26.4,34.8,26.4z M34.8,22.4
				c-0.7,0-1.2,0.6-1.2,1.2c0,0.7,0.6,1.2,1.2,1.2c0.7,0,1.2-0.6,1.2-1.2C36,22.9,35.4,22.4,34.8,22.4z"/>
		</g>
		<g>
			<circle class="st1" cx="62.8" cy="13.6" r="2"/>
		</g>
	</g>
</g>
</svg>
