<!-- Generator: Adobe Illustrator 22.0.0, SVG Export Plug-In  -->
<svg 
	 x="0px" y="0px" width="65.5px" height="65.5px" viewBox="0 0 65.5 65.5" style="enable-background:new 0 0 65.5 65.5;"
	 xml:space="preserve">

<g>
	<g>
		<g>
			<path class="st2" d="M32.8,65.5c-5.5,0-10.9-1.4-15.8-4l-16.1,4c-0.3,0.1-0.5,0-0.7-0.2C0,65.1,0,64.8,0,64.6l4-16.1
				c-2.6-4.8-4-10.2-4-15.8C0,14.7,14.7,0,32.8,0c18.1,0,32.8,14.7,32.8,32.8C65.5,50.8,50.8,65.5,32.8,65.5z M17.1,59.9
				c0.1,0,0.3,0,0.4,0.1c4.7,2.6,9.9,4,15.3,4C50,64,64,50,64,32.8C64,15.5,50,1.5,32.8,1.5c-17.2,0-31.2,14-31.2,31.2
				c0,5.3,1.4,10.6,4,15.3c0.1,0.2,0.1,0.4,0.1,0.5L1.8,63.7l15.1-3.8C17,59.9,17,59.9,17.1,59.9z"/>
		</g>
		<g>
			<path class="st2" d="M32.8,59.8c-14.9,0-27-12.1-27-27c0-14.9,12.1-27,27-27s27,12.1,27,27C59.8,47.6,47.6,59.8,32.8,59.8z
				 M32.8,7.2C18.7,7.2,7.2,18.7,7.2,32.8c0,14.1,11.4,25.5,25.5,25.5c14.1,0,25.5-11.4,25.5-25.5C58.2,18.7,46.8,7.2,32.8,7.2z"/>
		</g>
		<g>
			<path class="st1" d="M36.2,32.8c0,1.9-1.6,3.5-3.5,3.5c-1.9,0-3.5-1.6-3.5-3.5c0-1.9,1.6-3.5,3.5-3.5
				C34.7,29.3,36.2,30.8,36.2,32.8z"/>
		</g>
		<g>
			<path class="st0" d="M34,29.5c0.2,0.4,0.2,0.8,0.2,1.3c0,1.9-1.6,3.5-3.5,3.5c-0.4,0-0.9-0.1-1.3-0.2c0.5,1.3,1.8,2.2,3.3,2.2
				c1.9,0,3.5-1.6,3.5-3.5C36.2,31.3,35.3,30,34,29.5z"/>
		</g>
		<g>
			<path class="st2" d="M32.8,37c-2.3,0-4.2-1.9-4.2-4.2c0-2.3,1.9-4.2,4.2-4.2c2.3,0,4.2,1.9,4.2,4.2C37,35.1,35.1,37,32.8,37z
				 M32.8,30c-1.5,0-2.8,1.2-2.8,2.8c0,1.5,1.2,2.8,2.8,2.8c1.5,0,2.8-1.2,2.8-2.8C35.5,31.2,34.3,30,32.8,30z"/>
		</g>
		<g>
			<path class="st2" d="M39.3,27c-0.2,0-0.4-0.1-0.5-0.2c-3.3-3.3-8.7-3.3-12,0c-0.3,0.3-0.8,0.3-1.1,0c-0.3-0.3-0.3-0.8,0-1.1
				c3.9-3.9,10.2-3.9,14.1,0c0.3,0.3,0.3,0.8,0,1.1C39.7,26.9,39.5,27,39.3,27z"/>
		</g>
		<g>
			<path class="st2" d="M43.3,22.9c-0.2,0-0.4-0.1-0.5-0.2c-5.5-5.5-14.6-5.5-20.1,0c-0.3,0.3-0.8,0.3-1.1,0c-0.3-0.3-0.3-0.8,0-1.1
				c6.1-6.1,16.1-6.1,22.2,0c0.3,0.3,0.3,0.8,0,1.1C43.7,22.8,43.5,22.9,43.3,22.9z"/>
		</g>
		<g>
			<path class="st2" d="M47.4,18.8c-0.2,0-0.4-0.1-0.5-0.2c-3.8-3.8-8.8-5.9-14.1-5.9c-5.3,0-10.4,2.1-14.1,5.9
				c-0.3,0.3-0.8,0.3-1.1,0c-0.3-0.3-0.3-0.8,0-1.1c8.4-8.4,22-8.4,30.4,0c0.3,0.3,0.3,0.8,0,1.1C47.8,18.8,47.6,18.8,47.4,18.8z"/>
		</g>
		<g>
			<circle class="st1" cx="49.7" cy="49.8" r="15"/>
		</g>
		<g>
			<path class="st2" d="M49.8,65.5c-8.7,0-15.8-7.1-15.8-15.8C34,41.1,41.1,34,49.8,34c8.7,0,15.8,7.1,15.8,15.8
				C65.5,58.4,58.4,65.5,49.8,65.5z M49.8,35.5c-7.9,0-14.2,6.4-14.2,14.2c0,7.9,6.4,14.2,14.2,14.2C57.6,64,64,57.6,64,49.8
				C64,41.9,57.6,35.5,49.8,35.5z"/>
		</g>
		<g>
			<polygon class="st1" points="59.5,48.2 55.6,44.2 48.1,51.7 43.9,47.6 40,51.5 48.1,59.6 			"/>
		</g>
		<g>
			<path class="st0" d="M57.6,50.1l-1.5-1.5c-0.3-0.3-0.7-0.3-0.9,0l-6.6,6.6c-0.3,0.3-0.7,0.3-0.9,0l-3.3-3.3
				c-0.3-0.3-0.7-0.3-0.9,0l-1.5,1.5l6.1,6.1L57.6,50.1z"/>
		</g>
		<g>
			<path class="st2" d="M48.1,60.3c-0.2,0-0.4-0.1-0.5-0.2L39.4,52c-0.1-0.1-0.2-0.3-0.2-0.5c0-0.2,0.1-0.4,0.2-0.5l3.9-3.9
				c0.3-0.3,0.8-0.3,1.1,0l3.6,3.6l7-7c0.3-0.3,0.8-0.3,1.1,0l3.9,3.9c0.1,0.1,0.2,0.3,0.2,0.5s-0.1,0.4-0.2,0.5L48.6,60.1
				C48.5,60.3,48.3,60.3,48.1,60.3z M41,51.5l7,7l10.4-10.4l-2.9-2.9l-7,7c-0.3,0.3-0.8,0.3-1.1,0l-3.6-3.6L41,51.5z"/>
		</g>
		<g>
			<path class="st2" d="M46.9,28.6h-1.4c-0.4,0-0.8-0.3-0.8-0.8c0-0.4,0.3-0.8,0.8-0.8h1.4c0.4,0,0.8,0.3,0.8,0.8
				C47.6,28.3,47.3,28.6,46.9,28.6z"/>
		</g>
		<g>
			<path class="st2" d="M51.5,28.6h-1.4c-0.4,0-0.8-0.3-0.8-0.8c0-0.4,0.3-0.8,0.8-0.8h1.4c0.4,0,0.8,0.3,0.8,0.8
				C52.3,28.3,51.9,28.6,51.5,28.6z"/>
		</g>
		<g>
			<path class="st2" d="M48.5,31.6c-0.4,0-0.8-0.3-0.8-0.8v-1.4c0-0.4,0.3-0.8,0.8-0.8c0.4,0,0.8,0.3,0.8,0.8v1.4
				C49.3,31.3,48.9,31.6,48.5,31.6z"/>
		</g>
		<g>
			<path class="st2" d="M48.5,27c-0.4,0-0.8-0.3-0.8-0.8v-1.4c0-0.4,0.3-0.8,0.8-0.8c0.4,0,0.8,0.3,0.8,0.8v1.4
				C49.3,26.7,48.9,27,48.5,27z"/>
		</g>
		<g>
			<path class="st2" d="M13.9,35.6h-1.4c-0.4,0-0.8-0.3-0.8-0.8c0-0.4,0.3-0.8,0.8-0.8h1.4c0.4,0,0.8,0.3,0.8,0.8
				C14.6,35.3,14.3,35.6,13.9,35.6z"/>
		</g>
		<g>
			<path class="st2" d="M18.5,35.6h-1.4c-0.4,0-0.8-0.3-0.8-0.8c0-0.4,0.3-0.8,0.8-0.8h1.4c0.4,0,0.8,0.3,0.8,0.8
				C19.2,35.3,18.9,35.6,18.5,35.6z"/>
		</g>
		<g>
			<path class="st2" d="M15.5,38.6c-0.4,0-0.8-0.3-0.8-0.8v-1.4c0-0.4,0.3-0.8,0.8-0.8c0.4,0,0.8,0.3,0.8,0.8v1.4
				C16.2,38.3,15.9,38.6,15.5,38.6z"/>
		</g>
		<g>
			<path class="st2" d="M15.5,34c-0.4,0-0.8-0.3-0.8-0.8v-1.4c0-0.4,0.3-0.8,0.8-0.8c0.4,0,0.8,0.3,0.8,0.8v1.4
				C16.2,33.7,15.9,34,15.5,34z"/>
		</g>
		<g>
			<path class="st2" d="M24.9,47.6h-1.4c-0.4,0-0.8-0.3-0.8-0.8c0-0.4,0.3-0.8,0.8-0.8h1.4c0.4,0,0.8,0.3,0.8,0.8
				C25.6,47.3,25.3,47.6,24.9,47.6z"/>
		</g>
		<g>
			<path class="st2" d="M29.5,47.6h-1.4c-0.4,0-0.8-0.3-0.8-0.8c0-0.4,0.3-0.8,0.8-0.8h1.4c0.4,0,0.8,0.3,0.8,0.8
				C30.3,47.3,29.9,47.6,29.5,47.6z"/>
		</g>
		<g>
			<path class="st2" d="M26.5,50.6c-0.4,0-0.8-0.3-0.8-0.8v-1.4c0-0.4,0.3-0.8,0.8-0.8c0.4,0,0.8,0.3,0.8,0.8v1.4
				C27.3,50.3,26.9,50.6,26.5,50.6z"/>
		</g>
		<g>
			<path class="st2" d="M26.5,46c-0.4,0-0.8-0.3-0.8-0.8v-1.4c0-0.4,0.3-0.8,0.8-0.8c0.4,0,0.8,0.3,0.8,0.8v1.4
				C27.3,45.7,26.9,46,26.5,46z"/>
		</g>
	</g>
</g>
</svg>
